<svg xmlns="http://www.w3.org/2000/svg" width="64" height="64" viewBox="0 0 64 64"><path style="line-height:normal;text-indent:0;text-align:start;text-decoration-line:none;text-decoration-style:solid;text-decoration-color:#000;text-transform:none;block-progression:tb;white-space:normal;isolation:auto;mix-blend-mode:normal;solid-color:#000;solid-opacity:1" d="M 22.710938 11.769531 A 0.50005 0.50005 0 0 0 22.300781 12.019531 L 18.300781 18.947266 A 0.50005 0.50005 0 0 0 18.484375 19.630859 L 19.123047 20 L 11.291016 20 C 10.029546 20 9 21.034255 9 22.296875 L 9 33.992188 L 8.3457031 34.369141 L 6.4140625 35.484375 L 6.1054688 35.662109 A 0.50005 0.50005 0 0 0 6.0742188 35.679688 A 0.50005 0.50005 0 0 0 6.03125 35.705078 L 5.3945312 36.072266 L 3.6972656 37.052734 C 2.9325768 37.494221 2.6543097 38.460539 3.0390625 39.242188 L 2.4433594 39.585938 C 2.0228594 39.828737 1.8743575 40.384108 2.1171875 40.804688 L 2.9003906 42.164062 C 3.1431906 42.584583 3.6985806 42.733034 4.1191406 42.490234 L 4.7148438 42.146484 C 5.0823431 42.696354 5.7310986 42.964176 6.359375 42.869141 L 7.3007812 46.029297 L 6.5 46.029297 A 0.50005 0.50005 0 0 0 6 46.529297 C 6 49.552297 8.4493563 52 11.472656 52 L 50.527344 52 C 53.391412 52 55.737073 49.801456 55.976562 47 L 56.515625 47 C 57.306155 47 57.996094 46.389466 57.996094 45.597656 L 57.996094 44.5 L 57.996094 41.097656 L 57.996094 38.404297 C 57.996094 37.897165 57.711985 37.46496 57.300781 37.21875 L 57.955078 34.777344 C 58.143378 34.075254 57.717755 33.340304 57.015625 33.152344 L 53.996094 32.345703 L 53.996094 31.328125 C 53.996094 30.715539 53.569354 30.195417 53 30.046875 L 53 22.296875 C 53 21.034255 51.970454 20 50.708984 20 L 42.876953 20 L 43.515625 19.630859 A 0.50005 0.50005 0 0 0 43.699219 18.947266 L 39.699219 12.019531 A 0.50005 0.50005 0 0 0 39.015625 11.835938 L 36.417969 13.335938 A 0.50005 0.50005 0 0 0 36.234375 14.019531 L 36.3125 14.154297 L 34.929688 14.953125 C 34.890224 14.931024 34.850692 14.909334 34.810547 14.888672 C 34.78207 14.874073 34.755364 14.85567 34.726562 14.841797 C 34.403538 14.685613 34.061158 14.576501 33.708984 14.515625 C 33.69411 14.513045 33.678969 14.512172 33.664062 14.509766 C 33.55455 14.492169 33.444858 14.474784 33.333984 14.466797 C 33.291938 14.463764 33.249223 14.468426 33.207031 14.466797 C 33.147108 14.464365 33.087444 14.46641 33.027344 14.466797 C 32.903635 14.467878 32.780125 14.471098 32.65625 14.484375 C 32.634091 14.486687 32.611989 14.485577 32.589844 14.488281 C 32.558304 14.492132 32.52759 14.50511 32.496094 14.509766 C 32.324782 14.535538 32.155067 14.573311 31.986328 14.623047 C 31.916188 14.643603 31.846747 14.662703 31.777344 14.6875 C 31.56235 14.764505 31.350839 14.85468 31.146484 14.972656 L 31.144531 14.972656 L 31.005859 15.052734 L 31.003906 15.052734 L 30.84375 14.964844 C 30.613733 14.839838 30.372849 14.738249 30.130859 14.662109 C 29.888656 14.58607 29.643016 14.534535 29.396484 14.505859 C 29.396484 14.505859 29.394531 14.505859 29.394531 14.505859 C 29.394531 14.505859 29.392578 14.505859 29.392578 14.505859 C 29.168912 14.480063 28.944845 14.479926 28.722656 14.492188 C 28.664232 14.495421 28.606933 14.501994 28.548828 14.507812 C 28.377527 14.524931 28.209905 14.554444 28.042969 14.59375 C 27.984109 14.607578 27.92531 14.618221 27.867188 14.634766 C 27.654707 14.69535 27.443544 14.768933 27.244141 14.865234 C 27.187549 14.892599 27.135355 14.928793 27.080078 14.958984 L 25.6875 14.154297 L 25.765625 14.019531 A 0.50005 0.50005 0 0 0 25.582031 13.335938 L 22.984375 11.835938 A 0.50005 0.50005 0 0 0 22.710938 11.769531 z M 22.917969 12.951172 L 24.650391 13.951172 L 24.630859 13.984375 A 0.50005 0.50005 0 0 0 24.511719 14.193359 L 22.144531 18.291016 A 0.50005 0.50005 0 0 0 21.998047 18.544922 L 21.158203 20 L 21.126953 20 L 19.417969 19.013672 L 22.917969 12.951172 z M 39.082031 12.951172 L 42.582031 19.013672 L 40.875 20 L 40.84375 20 L 39.949219 18.453125 A 0.50005 0.50005 0 0 0 39.925781 18.410156 L 37.351562 13.951172 L 39.082031 12.951172 z M 25.1875 15.021484 L 26.210938 15.613281 C 26.194139 15.630223 26.178629 15.648709 26.162109 15.666016 C 26.11274 15.717684 26.0624 15.76736 26.015625 15.822266 C 25.86723 15.996568 25.728454 16.182421 25.609375 16.388672 L 24.582031 18.166016 L 24.582031 18.167969 C 24.569225 18.190174 24.563097 18.213975 24.550781 18.236328 C 24.451165 18.417455 24.365651 18.600127 24.300781 18.787109 C 24.265986 18.883349 24.241572 18.980529 24.214844 19.078125 L 23.1875 18.484375 L 25.1875 15.021484 z M 36.8125 15.021484 L 38.8125 18.484375 L 37.777344 19.082031 C 37.709458 18.81206 37.610365 18.54693 37.472656 18.287109 A 0.50005 0.50005 0 0 0 37.417969 18.167969 L 37.417969 18.166016 L 36.390625 16.388672 C 36.29908 16.230113 36.195421 16.081921 36.085938 15.941406 C 36.049749 15.895048 36.010641 15.852921 35.972656 15.808594 C 35.914872 15.740997 35.860521 15.670266 35.798828 15.607422 L 36.8125 15.021484 z M 33.109375 15.464844 C 33.160124 15.465783 33.211163 15.4612 33.261719 15.464844 C 33.479361 15.48052 33.692673 15.523424 33.900391 15.587891 C 33.92977 15.597046 33.957247 15.610974 33.986328 15.621094 C 34.154165 15.679227 34.317485 15.754496 34.472656 15.84375 C 34.520941 15.871763 34.568479 15.900667 34.615234 15.931641 C 34.750615 16.020648 34.875826 16.125112 34.996094 16.238281 C 35.037164 16.277134 35.082054 16.311913 35.121094 16.353516 C 35.271518 16.513288 35.410148 16.68907 35.525391 16.888672 L 36.552734 18.666016 L 36.552734 18.667969 C 36.890947 19.253752 36.990944 19.89762 36.898438 20.507812 C 36.846636 20.466598 36.795202 20.424614 36.736328 20.390625 L 33.314453 18.414062 C 33.326229 18.175965 33.280597 17.936451 33.173828 17.710938 A 0.50005 0.50005 0 0 0 33.117188 17.585938 C 33.111913 17.576802 33.105052 17.569523 33.099609 17.560547 A 0.50005 0.50005 0 0 0 33.070312 17.521484 C 32.632585 16.851824 31.724336 16.652806 31.021484 17.058594 A 0.50005 0.50005 0 0 0 31.001953 17.070312 L 30.869141 17.15625 L 28.984375 18.244141 C 28.618855 18.455171 28.190919 18.325938 27.824219 18.048828 L 28.857422 17.451172 L 31.255859 16.064453 A 0.50036152 0.50036152 0 0 0 31.269531 16.056641 L 31.644531 15.839844 A 0.50005 0.50005 0 0 0 31.646484 15.837891 C 31.79943 15.749583 31.957214 15.682391 32.117188 15.625 C 32.17114 15.605734 32.224833 15.589998 32.279297 15.574219 C 32.383261 15.543853 32.488593 15.521925 32.59375 15.503906 C 32.66203 15.49246 32.730337 15.478974 32.798828 15.472656 C 32.90233 15.462733 33.006233 15.46327 33.109375 15.464844 z M 28.728516 15.476562 C 29.091951 15.4521 29.464288 15.496545 29.828125 15.613281 C 29.828125 15.613281 29.830078 15.613281 29.830078 15.613281 C 29.869827 15.62606 29.907761 15.649547 29.947266 15.664062 L 28.355469 16.583984 L 26.732422 17.525391 A 0.50005 0.50005 0 0 0 26.550781 18.207031 C 27.156971 19.257041 28.466165 19.697245 29.484375 19.109375 L 31.007812 18.230469 L 32.03125 18.822266 A 0.50050437 0.50050437 0 0 0 32.095703 18.867188 L 32.496094 19.097656 A 0.50005 0.50005 0 0 0 32.519531 19.113281 L 36.236328 21.257812 C 36.418743 21.363125 36.47544 21.570137 36.378906 21.753906 C 36.362898 21.775629 36.346747 21.797042 36.330078 21.818359 C 36.214233 21.960428 36.028545 22.002793 35.861328 21.90625 L 31.746094 19.53125 L 31.314453 19.28125 A 0.50050437 0.50050437 0 0 0 30.814453 20.148438 L 31.246094 20.396484 L 35.361328 22.773438 L 35.363281 22.773438 L 35.779297 23.013672 A 0.50005 0.50005 0 0 0 35.839844 23.078125 C 35.983764 23.203455 36.022597 23.374316 35.929688 23.535156 C 35.90262 23.582084 35.868462 23.620307 35.830078 23.650391 C 35.7533 23.710553 35.659121 23.736511 35.5625 23.722656 C 35.514186 23.715729 35.464896 23.69897 35.417969 23.671875 L 34.988281 23.423828 L 34.986328 23.421875 L 30.871094 21.046875 L 30.439453 20.796875 A 0.50050437 0.50050437 0 0 0 29.939453 21.664062 L 30.371094 21.912109 L 34.486328 24.289062 C 34.533046 24.316232 34.571555 24.350207 34.601562 24.388672 C 34.631044 24.426717 34.654028 24.468742 34.666016 24.513672 C 34.666016 24.513672 34.666016 24.515625 34.666016 24.515625 C 34.689621 24.60611 34.676782 24.707706 34.623047 24.800781 C 34.595967 24.847736 34.561823 24.885927 34.523438 24.916016 C 34.446665 24.97619 34.352482 25.00215 34.255859 24.988281 C 34.207549 24.981345 34.158258 24.964595 34.111328 24.9375 L 33.244141 24.4375 L 29.564453 22.3125 L 28.697266 21.8125 A 0.50005 0.50005 0 0 0 28.197266 22.677734 L 29.064453 23.177734 L 32.744141 25.302734 C 32.931621 25.410974 32.989069 25.628976 32.880859 25.816406 C 32.853789 25.863334 32.819634 25.901557 32.78125 25.931641 C 32.704472 25.991806 32.610292 26.017763 32.513672 26.003906 C 32.465358 25.996979 32.416071 25.98022 32.369141 25.953125 L 28.085938 23.480469 L 28.080078 23.476562 L 27.822266 23.328125 L 26.478516 22.550781 C 26.363958 22.484638 26.263709 22.402701 26.162109 22.324219 A 0.50005 0.50005 0 0 0 26.142578 22.306641 C 25.737844 21.986209 25.439491 21.572812 25.259766 21.117188 C 25.255746 21.106807 25.251942 21.096363 25.248047 21.085938 C 25.196726 20.951161 25.157021 20.812774 25.126953 20.671875 C 25.118011 20.6286 25.112373 20.584713 25.105469 20.541016 C 25.086403 20.424991 25.072679 20.307557 25.068359 20.189453 C 25.066061 20.114771 25.07055 20.039902 25.074219 19.964844 C 25.078298 19.872266 25.080324 19.780104 25.09375 19.6875 C 25.109056 19.584636 25.137126 19.482878 25.164062 19.380859 C 25.18242 19.310636 25.194706 19.239425 25.21875 19.169922 C 25.27816 18.999172 25.353171 18.831174 25.447266 18.667969 L 25.447266 18.666016 L 26.474609 16.888672 C 26.971016 16.028866 27.819927 15.537718 28.728516 15.476562 z M 20.744141 18.148438 A 0.5 0.5 0 0 0 20.349609 18.398438 A 0.5 0.5 0 0 0 20.533203 19.080078 A 0.5 0.5 0 0 0 21.214844 18.898438 A 0.5 0.5 0 0 0 21.033203 18.214844 A 0.5 0.5 0 0 0 20.744141 18.148438 z M 41.205078 18.148438 A 0.5 0.5 0 0 0 40.966797 18.214844 A 0.5 0.5 0 0 0 40.785156 18.898438 A 0.5 0.5 0 0 0 41.466797 19.080078 A 0.5 0.5 0 0 0 41.650391 18.398438 A 0.5 0.5 0 0 0 41.205078 18.148438 z M 22.6875 19.351562 L 23.810547 20 L 22.3125 20 L 22.6875 19.351562 z M 39.3125 19.351562 L 39.6875 20 L 38.189453 20 L 39.3125 19.351562 z M 11.291016 21 L 20.855469 21 L 21.082031 21.130859 A 0.50005 0.50005 0 0 0 21.728516 21 L 24.181641 21 C 24.348117 21.686964 24.707001 22.319057 25.226562 22.828125 C 25.195785 22.890434 25.161692 22.950814 25.138672 23.015625 L 12.5 23.015625 A 0.50005 0.50005 0 0 0 12 23.515625 L 12 29.056641 L 10.777344 29.761719 A 0.50005 0.50005 0 0 0 10.595703 30.445312 L 10.736328 30.6875 C 11.157519 31.652608 10.854637 32.768509 10 33.386719 L 10 22.296875 C 10 21.569705 10.567336 21 11.291016 21 z M 37.726562 21 L 40.271484 21 A 0.50005 0.50005 0 0 0 40.917969 21.130859 L 41.144531 21 L 50.708984 21 C 51.432664 21 52 21.569705 52 22.296875 L 52 30 L 50 30 L 50 23.515625 A 0.50005 0.50005 0 0 0 49.5 23.015625 L 36.861328 23.015625 C 36.82317 22.908194 36.773096 22.804833 36.714844 22.705078 C 36.734765 22.684861 36.750053 22.661185 36.769531 22.640625 C 36.94725 22.543285 37.131067 22.45501 37.238281 22.269531 C 37.329249 22.111969 37.383159 21.942698 37.40625 21.771484 C 37.542126 21.524588 37.646305 21.266182 37.726562 21 z M 26.054688 23.462891 L 26.480469 23.707031 C 26.321034 23.749341 26.15961 23.689952 26.070312 23.535156 A 0.50005 0.50005 0 0 0 26.068359 23.535156 C 26.05455 23.511242 26.062681 23.487137 26.054688 23.462891 z M 13 24.015625 L 25.197266 24.015625 C 25.200404 24.021296 25.199871 24.027547 25.203125 24.033203 C 25.460795 24.479893 25.937848 24.632037 26.423828 24.623047 C 26.424758 24.852987 26.390019 25.087388 26.511719 25.298828 C 26.851879 25.888698 27.571453 26.064605 28.189453 25.828125 C 28.213553 25.993105 28.164453 26.162323 28.251953 26.314453 C 28.628423 26.967143 29.478799 27.194819 30.130859 26.818359 L 31 26.316406 L 31.869141 26.818359 C 32.521131 27.194779 33.371557 26.969096 33.748047 26.316406 C 33.836147 26.163736 33.786347 25.993835 33.810547 25.828125 C 33.964515 25.887256 34.126103 25.919749 34.285156 25.927734 C 34.603907 25.943331 34.920268 25.854642 35.169922 25.664062 C 35.294862 25.568401 35.403171 25.448366 35.488281 25.300781 C 35.610621 25.088871 35.575272 24.853637 35.576172 24.623047 C 36.062132 24.632047 36.539205 24.481866 36.796875 24.035156 C 36.800584 24.028732 36.801129 24.022067 36.804688 24.015625 L 49 24.015625 L 49 30 L 47.320312 30 C 46.594503 30 45.996094 30.602675 45.996094 31.328125 L 45.996094 32.345703 L 44.068359 32.861328 A 0.50005 0.50005 0 0 0 43.888672 32.908203 L 42.980469 33.152344 C 42.278349 33.340304 41.852716 34.075244 42.041016 34.777344 L 42.695312 37.216797 C 42.282091 37.462612 41.996094 37.895626 41.996094 38.404297 L 41.996094 43.015625 L 13 43.015625 L 13 39.173828 L 13.054688 39.142578 C 14.054979 38.565051 15.294096 38.845411 15.966797 39.748047 L 16.095703 39.972656 A 0.50005 0.50005 0 0 0 16.65625 40.203125 A 0.50050437 0.50050437 0 0 0 16.875 40.097656 L 18.509766 39.154297 A 0.50005 0.50005 0 0 0 18.693359 38.472656 L 17.261719 35.992188 C 18.324928 35.124281 18.644722 33.586287 17.9375 32.361328 C 17.23035 31.136514 15.738201 30.642399 14.455078 31.128906 L 13.193359 28.945312 A 0.50005 0.50005 0 0 0 13 28.757812 L 13 24.015625 z M 27.501953 24.298828 L 27.582031 24.34375 A 0.50005 0.50005 0 0 0 27.585938 24.345703 L 28.25 24.730469 L 27.890625 24.9375 C 27.702935 25.04587 27.487196 24.988601 27.378906 24.800781 A 0.50005 0.50005 0 0 0 27.376953 24.800781 C 27.27192 24.618866 27.327281 24.410014 27.501953 24.298828 z M 29.251953 25.306641 L 30 25.740234 L 29.630859 25.953125 C 29.443219 26.061465 29.227411 26.004126 29.119141 25.816406 A 0.50005 0.50005 0 0 0 29.117188 25.816406 C 29.009765 25.630341 29.06714 25.415784 29.251953 25.306641 z M 15.736328 26.792969 L 14.953125 28.152344 L 15.818359 28.652344 L 16.603516 27.292969 L 15.736328 26.792969 z M 56.492188 26.986328 A 0.50005 0.50005 0 0 0 56 27.494141 A 0.50005 0.50005 0 1 0 56 28.494141 A 0.50005 0.50005 0 1 0 57 28.494141 A 0.50005 0.50005 0 1 0 57 27.494141 A 0.50005 0.50005 0 0 0 56.492188 26.986328 z M 41.492188 27.001953 A 0.50004997 0.50004997 0 0 0 41 27.507812 L 41 28 L 40.507812 28 A 0.50004997 0.50004997 0 1 0 40.507812 29 L 41 29 L 41 29.494141 A 0.50004997 0.50004997 0 1 0 42 29.494141 L 42 29 L 42.492188 29 A 0.50004997 0.50004997 0 1 0 42.492188 28 L 42 28 L 42 27.507812 A 0.50004997 0.50004997 0 0 0 41.492188 27.001953 z M 18.089844 28.433594 L 16.980469 29.542969 L 17.6875 30.25 L 18.796875 29.140625 L 18.089844 28.433594 z M 33.160156 29.316406 C 32.061506 29.316406 31.160156 30.217766 31.160156 31.316406 C 31.160156 31.499515 31.193419 31.672909 31.240234 31.841797 L 27.298828 33.8125 C 26.914479 33.506803 26.436026 33.316406 25.910156 33.316406 C 24.673436 33.316406 23.660156 34.329696 23.660156 35.566406 C 23.660156 36.803126 24.673436 37.816406 25.910156 37.816406 C 26.41918 37.816406 26.885424 37.637855 27.263672 37.349609 L 31.226562 39.332031 C 31.187225 39.487734 31.160156 39.649061 31.160156 39.816406 C 31.160156 40.915056 32.061506 41.816406 33.160156 41.816406 C 34.258796 41.816406 35.160156 40.915056 35.160156 39.816406 C 35.160156 38.717766 34.258796 37.816406 33.160156 37.816406 C 32.587958 37.816406 32.072729 38.0636 31.707031 38.453125 L 27.916016 36.558594 C 28.066451 36.257379 28.160156 35.924122 28.160156 35.566406 C 28.160156 35.224557 28.075662 34.902353 27.9375 34.611328 L 31.736328 32.710938 C 32.100059 33.081755 32.603834 33.316406 33.160156 33.316406 C 34.258796 33.316406 35.160156 32.415056 35.160156 31.316406 C 35.160156 30.217766 34.258796 29.316406 33.160156 29.316406 z M 12.576172 29.878906 L 17.576172 38.539062 L 16.734375 39.025391 L 11.734375 30.365234 L 12.576172 29.878906 z M 33.160156 30.316406 C 33.718356 30.316406 34.160156 30.758206 34.160156 31.316406 C 34.160156 31.874616 33.718356 32.316406 33.160156 32.316406 C 32.601946 32.316406 32.160156 31.874616 32.160156 31.316406 C 32.160156 30.758206 32.601946 30.316406 33.160156 30.316406 z M 19.939453 30.628906 L 18.580078 31.414062 L 19.080078 32.279297 L 20.439453 31.496094 L 19.939453 30.628906 z M 47.320312 31 L 47.980469 31 C 48.017525 31.235777 47.941355 31.463633 47.759766 31.65625 C 47.581652 31.845173 47.303899 31.971893 46.996094 32 L 46.996094 31.328125 C 46.996094 31.136945 47.133663 31 47.320312 31 z M 48.982422 31 L 51.013672 31 C 51.004651 31.458884 51.156694 31.92455 51.5 32.289062 C 51.890227 32.703409 52.432727 32.937145 52.996094 32.980469 L 52.996094 37 L 52.033203 37 L 52.033203 35.738281 L 52.027344 35.738281 L 51.484375 35.738281 L 51.484375 36.287109 C 51.484361 36.636698 51.366437 36.861279 51.197266 37 L 50.949219 37 L 50.949219 35.738281 L 50.408203 35.738281 L 50.408203 37 L 50.160156 37 C 49.990535 36.861449 49.87108 36.637294 49.871094 36.287109 L 49.871094 36.115234 L 49.871094 36.111328 L 49.871094 35.738281 L 49.330078 35.738281 L 49.330078 35.892578 L 48.236328 37 L 46.996094 37 L 46.996094 32.980469 C 47.560771 32.937606 48.104955 32.703946 48.496094 32.289062 C 48.839977 31.924296 48.992181 31.459197 48.982422 31 z M 52.013672 31 L 52.673828 31 C 52.860478 31 52.996094 31.136945 52.996094 31.328125 L 52.996094 31.996094 C 52.690537 31.967149 52.413499 31.842416 52.236328 31.654297 C 52.05493 31.461681 51.977205 31.235629 52.013672 31 z M 38.5 32 A 0.5 0.5 0 0 0 38 32.5 A 0.5 0.5 0 0 0 38.5 33 A 0.5 0.5 0 0 0 39 32.5 A 0.5 0.5 0 0 0 38.5 32 z M 15.652344 32.054688 C 16.224039 32.072194 16.757908 32.320248 17.070312 32.861328 C 17.486842 33.582798 17.255476 34.384754 16.722656 34.964844 L 15.898438 33.539062 L 15.076172 32.111328 C 15.268367 32.068481 15.461779 32.048852 15.652344 32.054688 z M 11.78125 32.498047 L 14.927734 37.947266 C 14.148241 37.760996 13.300072 37.846994 12.554688 38.277344 L 11.089844 39.123047 L 9.2519531 40.183594 L 7.0078125 36.294922 L 8.8457031 35.234375 L 10.310547 34.388672 C 11.056579 33.957945 11.553137 33.267002 11.78125 32.498047 z M 60.5 33 A 0.5 0.5 0 0 0 60 33.5 A 0.5 0.5 0 0 0 60.5 34 A 0.5 0.5 0 0 0 61 33.5 A 0.5 0.5 0 0 0 60.5 33 z M 21.15625 33.228516 L 19.640625 33.632812 L 19.900391 34.599609 L 21.416016 34.193359 L 21.15625 33.228516 z M 45.996094 33.380859 L 45.996094 37 L 43.671875 37 L 43.462891 36.214844 C 44.03162 36.057402 44.515926 35.666499 44.761719 35.115234 C 44.9651 34.659089 44.971828 34.154098 44.824219 33.693359 L 45.996094 33.380859 z M 53.996094 33.380859 L 55.244141 33.714844 C 55.06888 34.195521 55.072338 34.733154 55.287109 35.214844 C 55.522671 35.743163 55.974525 36.129845 56.511719 36.300781 L 56.324219 37 L 53.996094 37 L 53.996094 33.380859 z M 43.867188 33.951172 C 43.957827 34.193494 43.956442 34.464992 43.847656 34.708984 C 43.725151 34.983731 43.487039 35.17647 43.205078 35.255859 L 43.007812 34.519531 C 42.958612 34.336211 43.054211 34.168421 43.238281 34.119141 L 43.867188 33.951172 z M 56.214844 33.974609 L 56.757812 34.119141 C 56.941913 34.168441 57.039404 34.336221 56.990234 34.519531 L 56.769531 35.337891 C 56.519007 35.246855 56.31135 35.060074 56.199219 34.808594 C 56.078308 34.537424 56.090435 34.235213 56.214844 33.974609 z M 25.910156 34.316406 C 26.606426 34.316406 27.160156 34.870136 27.160156 35.566406 C 27.160156 36.262686 26.606426 36.816406 25.910156 36.816406 C 25.213876 36.816406 24.660156 36.262686 24.660156 35.566406 C 24.660156 34.870136 25.213876 34.316406 25.910156 34.316406 z M 20.091797 36.052734 L 20.091797 37.052734 L 21.660156 37.052734 L 21.660156 36.052734 L 20.091797 36.052734 z M 49.365234 36.626953 C 49.393922 36.763663 49.444529 36.886893 49.503906 37 L 48.996094 37 L 49.365234 36.626953 z M 6.140625 36.794922 L 8.3867188 40.683594 L 8.140625 40.826172 L 6.4414062 41.806641 C 6.1093363 41.998361 5.7093081 41.890644 5.5175781 41.558594 L 5.3398438 41.25 A 0.50005 0.50005 0 0 0 5.3222656 41.21875 L 4.1445312 39.181641 L 3.9492188 38.841797 C 3.7574787 38.509717 3.8652156 38.109689 4.1972656 37.917969 L 5.8945312 36.9375 L 6.140625 36.794922 z M 39.486328 36.986328 A 0.50005 0.50005 0 0 0 38.992188 37.494141 A 0.50005 0.50005 0 1 0 38.992188 38.494141 A 0.50005 0.50005 0 1 0 39.992188 38.494141 A 0.50005 0.50005 0 1 0 39.992188 37.494141 A 0.50005 0.50005 0 0 0 39.486328 36.986328 z M 43.476562 38 L 56.515625 38 C 56.811615 38 56.996094 38.194947 56.996094 38.404297 L 56.996094 40.597656 L 52.164062 40.597656 A 0.50004997 0.50004997 0 0 0 51.769531 40.789062 L 51.103516 41.640625 A 0.50004997 0.50004997 0 0 0 50.996094 41.949219 L 50.996094 42.798828 L 50.996094 43.650391 A 0.50004997 0.50004997 0 0 0 51.103516 43.958984 L 51.769531 44.808594 A 0.50004997 0.50004997 0 0 0 52.164062 45 L 56.996094 45 L 56.996094 45.597656 C 56.996094 45.807016 56.811625 46 56.515625 46 L 43.476562 46 C 43.180573 46 42.996094 45.807006 42.996094 45.597656 L 42.996094 38.404297 C 42.996094 38.194957 43.180583 38 43.476562 38 z M 33.160156 38.816406 C 33.718356 38.816406 34.160156 39.258206 34.160156 39.816406 C 34.160156 40.374616 33.718356 40.816406 33.160156 40.816406 C 32.601946 40.816406 32.160156 40.374616 32.160156 39.816406 C 32.160156 39.677524 32.188596 39.545241 32.238281 39.425781 A 0.50005635 0.50005635 0 0 0 32.238281 39.423828 A 0.50005635 0.50005635 0 0 0 32.320312 39.300781 C 32.494865 39.014269 32.795385 38.816406 33.160156 38.816406 z M 60.492188 39.001953 A 0.50004997 0.50004997 0 0 0 60 39.507812 L 60 40 L 59.507812 40 A 0.50004997 0.50004997 0 1 0 59.507812 41 L 60 41 L 60 41.494141 A 0.50004997 0.50004997 0 1 0 61 41.494141 L 61 41 L 61.492188 41 A 0.50004997 0.50004997 0 1 0 61.492188 40 L 61 40 L 61 39.507812 A 0.50004997 0.50004997 0 0 0 60.492188 39.001953 z M 12 39.751953 L 12 43.515625 A 0.50005 0.50005 0 0 0 12.5 44.015625 L 41.996094 44.015625 L 41.996094 45.597656 C 41.996094 45.750483 42.029006 45.893063 42.076172 46.029297 L 11.003906 46.029297 L 10 42.605469 L 10 40.90625 L 11.589844 39.988281 L 12 39.751953 z M 3.5292969 40.115234 L 4.2050781 41.287109 L 3.7128906 41.570312 L 3.0371094 40.398438 L 3.5292969 40.115234 z M 52.40625 41.597656 L 56.996094 41.597656 L 56.996094 44 L 52.40625 44 L 51.996094 43.476562 L 51.996094 42.798828 L 51.996094 42.121094 L 52.40625 41.597656 z M 8.6875 41.681641 L 9.9609375 46.029297 L 8.34375 46.029297 L 7.2890625 42.488281 L 8.6875 41.681641 z M 53.460938 42.330078 A 0.5 0.49954557 0 0 0 52.996094 42.828125 A 0.5 0.49954557 0 0 0 53.496094 43.328125 A 0.5 0.49954557 0 0 0 53.996094 42.828125 A 0.5 0.49954557 0 0 0 53.496094 42.330078 A 0.5 0.49954557 0 0 0 53.460938 42.330078 z M 7.0996094 47.029297 L 26 47.029297 L 26 47.857422 C 26 48.852742 26.795876 49.683594 27.785156 49.683594 L 34.214844 49.683594 C 35.204134 49.683594 36 48.852732 36 47.857422 L 36 47.029297 L 54.900391 47.029297 C 54.643731 49.264197 52.836404 51 50.527344 51 L 11.472656 51 C 9.1635963 51 7.3562694 49.264197 7.0996094 47.029297 z M 27 47.029297 L 35 47.029297 L 35 47.857422 C 35 48.332912 34.650144 48.683594 34.214844 48.683594 L 27.785156 48.683594 C 27.349866 48.683594 27 48.332902 27 47.857422 L 27 47.029297 z " color="#000" enable-background="accumulate" font-family="sans-serif" font-weight="400" overflow="visible"/></svg>