<svg width="1600" height="200" viewBox="0 0 1600 200" fill="none" xmlns="http://www.w3.org/2000/svg">
<path d="M1193.5 49.5C1260.17 54.1066 1323.02 118.165 1400 83.5C1475.5 49.5 1541.04 0 1600 0V200H1566.67L1400 200L1200 200L1000 200L800 200L600 200L400 200L200 200L33.3335 200H0V0C40.9713 2.10545 88.536 14.2779 132.417 34.1625C184.385 57.7115 133.333 35.6649 200 67.9111C266.667 100.157 333.333 135.508 400 121.688C466.667 107.868 533.333 43.3757 600 34.1625C666.667 24.9493 733.333 71.0153 800 98.6549C866.667 126.294 933.334 135.508 1000 112.475C1066.67 89.4417 1126.83 44.8934 1193.5 49.5Z" fill="#0875CB"/>
</svg>
