<svg width="674" height="266" viewBox="0 0 674 266" fill="none" xmlns="http://www.w3.org/2000/svg">
<rect width="77.2526" height="77.2526" rx="12" transform="matrix(0.895261 -0.445542 0.895261 0.445542 279.637 165.063)" fill="url(#paint0_linear_499_249)"/>
<rect opacity="0.1" width="77.2526" height="77.2526" rx="12" transform="matrix(0.895261 -0.445542 0.895261 0.445542 279.637 214.108)" fill="url(#paint1_linear_499_249)"/>
<rect opacity="0.2" width="77.2526" height="77.2526" rx="12" transform="matrix(0.895261 -0.445542 0.895261 0.445542 279.637 203.446)" fill="url(#paint2_linear_499_249)"/>
<rect opacity="0.3" width="77.2526" height="77.2526" rx="12" transform="matrix(0.895261 -0.445542 0.895261 0.445542 279.637 193.85)" fill="url(#paint3_linear_499_249)"/>
<rect opacity="0.4" width="77.2526" height="77.2526" rx="12" transform="matrix(0.895261 -0.445542 0.895261 0.445542 279.637 184.255)" fill="url(#paint4_linear_499_249)"/>
<rect opacity="0.5" width="77.2526" height="77.2526" rx="12" transform="matrix(0.895261 -0.445542 0.895261 0.445542 279.637 175.725)" fill="url(#paint5_linear_499_249)"/>
<rect width="50.8985" height="52.0904" rx="12" transform="matrix(0.9147 -0.404133 0.9147 0.404133 187 214.57)" fill="url(#paint6_linear_499_249)"/>
<rect opacity="0.1" width="52.2743" height="52.0904" rx="12" transform="matrix(0.9147 -0.404133 0.9147 0.404133 187 244.567)" fill="url(#paint7_linear_499_249)"/>
<rect opacity="0.2" width="52.0904" height="52.0904" rx="12" transform="matrix(0.9147 -0.404133 0.9147 0.404133 187 238.045)" fill="url(#paint8_linear_499_249)"/>
<rect opacity="0.3" width="52.0904" height="52.0904" rx="12" transform="matrix(0.9147 -0.404133 0.9147 0.404133 187 232.177)" fill="url(#paint9_linear_499_249)"/>
<rect opacity="0.4" width="52.0904" height="52.0904" rx="12" transform="matrix(0.9147 -0.404133 0.9147 0.404133 187 226.308)" fill="url(#paint10_linear_499_249)"/>
<rect opacity="0.5" width="52.0904" height="52.0904" rx="12" transform="matrix(0.9147 -0.404133 0.9147 0.404133 187 221.091)" fill="url(#paint11_linear_499_249)"/>
<rect width="31.5718" height="31.5718" transform="matrix(0.893569 -0.448926 0.893569 0.448926 206.228 187.593)" fill="url(#paint12_linear_499_249)"/>
<rect width="32.4541" height="28.2497" transform="matrix(0.89357 -0.448924 2.53174e-08 1 234 202.017)" fill="url(#paint13_linear_499_249)"/>
<rect width="31.5718" height="28.3468" transform="matrix(0.893569 0.448926 -2.53173e-08 1 206.228 187.62)" fill="url(#paint14_linear_499_249)"/>
<g style="mix-blend-mode:screen" opacity="0.2">
<rect width="31.5718" height="31.5718" transform="matrix(0.893569 -0.448926 0.893569 0.448926 206.62 195.794)" fill="url(#paint15_linear_499_249)"/>
</g>
<g style="mix-blend-mode:screen" opacity="0.2">
<rect width="31.5718" height="31.5718" transform="matrix(0.893569 -0.448926 0.893569 0.448926 206.62 207.411)" fill="url(#paint16_linear_499_249)"/>
</g>
<rect x="4.50882" width="40.4337" height="40.4337" transform="matrix(0.901763 -0.432231 0.901763 0.432231 193.443 181.587)" stroke="url(#paint17_linear_499_249)" stroke-width="5" stroke-linejoin="round"/>
<rect x="2.25441" y="1.41942" width="40.4665" height="33.5687" transform="matrix(0.901763 -0.43223 2.65364e-08 1 234.221 200.35)" stroke="url(#paint18_linear_499_249)" stroke-width="5" stroke-linejoin="round"/>
<rect x="2.25441" y="3.58058" width="40.4337" height="33.428" transform="matrix(0.901763 0.432231 -2.65363e-08 1 193.221 178.762)" stroke="url(#paint19_linear_499_249)" stroke-width="5" stroke-linejoin="round"/>
<rect width="50.8985" height="52.0904" rx="12" transform="matrix(0.9147 -0.404133 0.9147 0.404133 98 181.57)" fill="url(#paint20_linear_499_249)"/>
<rect opacity="0.1" width="52.2743" height="52.0904" rx="12" transform="matrix(0.9147 -0.404133 0.9147 0.404133 98 211.567)" fill="url(#paint21_linear_499_249)"/>
<rect opacity="0.2" width="52.0904" height="52.0904" rx="12" transform="matrix(0.9147 -0.404133 0.9147 0.404133 98 205.045)" fill="url(#paint22_linear_499_249)"/>
<rect opacity="0.3" width="52.0904" height="52.0904" rx="12" transform="matrix(0.9147 -0.404133 0.9147 0.404133 98 199.177)" fill="url(#paint23_linear_499_249)"/>
<rect opacity="0.4" width="52.0904" height="52.0904" rx="12" transform="matrix(0.9147 -0.404133 0.9147 0.404133 98 193.308)" fill="url(#paint24_linear_499_249)"/>
<rect opacity="0.5" width="52.0904" height="52.0904" rx="12" transform="matrix(0.9147 -0.404133 0.9147 0.404133 98 188.091)" fill="url(#paint25_linear_499_249)"/>
<rect width="31.5718" height="31.5718" transform="matrix(0.893569 -0.448926 0.893569 0.448926 117.228 154.593)" fill="url(#paint26_linear_499_249)"/>
<rect width="32.4541" height="28.2497" transform="matrix(0.89357 -0.448924 2.53174e-08 1 145 169.017)" fill="url(#paint27_linear_499_249)"/>
<rect width="31.5718" height="28.3468" transform="matrix(0.893569 0.448926 -2.53173e-08 1 117.228 154.62)" fill="url(#paint28_linear_499_249)"/>
<g style="mix-blend-mode:screen" opacity="0.2">
<rect width="31.5718" height="31.5718" transform="matrix(0.893569 -0.448926 0.893569 0.448926 117.62 162.794)" fill="url(#paint29_linear_499_249)"/>
</g>
<g style="mix-blend-mode:screen" opacity="0.2">
<rect width="31.5718" height="31.5718" transform="matrix(0.893569 -0.448926 0.893569 0.448926 117.62 174.411)" fill="url(#paint30_linear_499_249)"/>
</g>
<rect x="4.50882" width="40.4337" height="40.4337" transform="matrix(0.901763 -0.432231 0.901763 0.432231 104.443 148.587)" stroke="url(#paint31_linear_499_249)" stroke-width="5" stroke-linejoin="round"/>
<rect x="2.25441" y="1.41942" width="40.4665" height="33.5687" transform="matrix(0.901763 -0.43223 2.65364e-08 1 145.221 167.35)" stroke="url(#paint32_linear_499_249)" stroke-width="5" stroke-linejoin="round"/>
<rect x="2.25441" y="3.58058" width="40.4337" height="33.428" transform="matrix(0.901763 0.432231 -2.65363e-08 1 104.221 145.762)" stroke="url(#paint33_linear_499_249)" stroke-width="5" stroke-linejoin="round"/>
<g opacity="0.5">
<rect width="145.096" height="67.0881" rx="20" transform="matrix(0.890099 -0.455767 2.48405e-08 1 0 77.1296)" fill="url(#paint34_linear_499_249)"/>
<rect width="58.8793" height="6.70881" rx="3.3544" transform="matrix(0.890099 -0.455767 2.48405e-08 1 14.9741 78.0881)" fill="#C4C4C4"/>
<rect width="110.399" height="6.70881" rx="3.3544" transform="matrix(0.890099 -0.455767 2.48405e-08 1 14.9741 88.6306)" fill="#1581FF"/>
<rect width="52.5708" height="6.70881" rx="3.3544" transform="matrix(0.890099 -0.455767 2.48405e-08 1 14.9741 110.674)" fill="#036CB1"/>
<g style="mix-blend-mode:soft-light">
<rect width="87.2676" height="5.75041" rx="2.8752" transform="matrix(0.890099 -0.455767 2.48405e-08 1 14.9741 100.131)" fill="#C4C4C4"/>
</g>
<rect width="44.1595" height="6.70881" rx="3.3544" transform="matrix(0.890099 -0.455767 2.48405e-08 1 74.8696 91.5056)" fill="#C4C4C4"/>
<g style="mix-blend-mode:overlay">
<rect width="54.6737" height="6.70881" rx="3.3544" transform="matrix(0.890099 -0.455767 2.48405e-08 1 64.5752 87.1929)" fill="#036CB1"/>
</g>
</g>
<rect width="145.096" height="67.0881" rx="20" transform="matrix(0.890099 -0.455767 2.48405e-08 1 1.63379 80.9634)" fill="url(#paint35_linear_499_249)"/>
<rect width="58.8793" height="6.70881" rx="3.3544" transform="matrix(0.890099 -0.455767 2.48405e-08 1 16.6074 81.9219)" fill="#C4C4C4"/>
<rect width="110.399" height="6.70881" rx="3.3544" transform="matrix(0.890099 -0.455767 2.48405e-08 1 16.6074 92.4641)" fill="#1581FF"/>
<rect width="52.5708" height="6.70881" rx="3.3544" transform="matrix(0.890099 -0.455767 2.48405e-08 1 16.6074 114.507)" fill="#036CB1"/>
<g style="mix-blend-mode:soft-light">
<rect width="87.2676" height="5.75041" rx="2.8752" transform="matrix(0.890099 -0.455767 2.48405e-08 1 16.6074 103.965)" fill="#C4C4C4"/>
</g>
<rect width="44.1595" height="6.70881" rx="3.3544" transform="matrix(0.890099 -0.455767 2.48405e-08 1 76.5034 95.3394)" fill="#C4C4C4"/>
<g style="mix-blend-mode:overlay">
<rect width="54.6737" height="6.70881" rx="3.3544" transform="matrix(0.890099 -0.455767 2.48405e-08 1 66.2085 91.0266)" fill="#036CB1"/>
</g>
<g opacity="0.5">
<rect width="145.096" height="67.0881" rx="20" transform="matrix(0.890099 0.455767 -2.48405e-08 1 544.242 76)" fill="url(#paint36_linear_499_249)"/>
<rect width="58.8793" height="6.70881" rx="3.3544" transform="matrix(0.890099 0.455767 -2.48405e-08 1 559.216 92.293)" fill="#C4C4C4"/>
<rect width="110.399" height="6.70881" rx="3.3544" transform="matrix(0.890099 0.455767 -2.48405e-08 1 559.216 102.835)" fill="#1581FF"/>
<rect width="52.5708" height="6.70881" rx="3.3544" transform="matrix(0.890099 0.455767 -2.48405e-08 1 559.216 124.878)" fill="#036CB1"/>
<g style="mix-blend-mode:soft-light">
<rect width="87.2676" height="5.75041" rx="2.8752" transform="matrix(0.890099 0.455767 -2.48405e-08 1 559.216 114.336)" fill="#C4C4C4"/>
</g>
<rect width="44.1595" height="6.70881" rx="3.3544" transform="matrix(0.890099 0.455767 -2.48405e-08 1 619.111 167.048)" fill="#C4C4C4"/>
<g style="mix-blend-mode:overlay">
<rect width="54.6737" height="6.70881" rx="3.3544" transform="matrix(0.890099 0.455767 -2.48405e-08 1 608.817 152.193)" fill="#036CB1"/>
</g>
</g>
<rect width="145.096" height="67.0881" rx="20" transform="matrix(0.890099 0.455767 -2.48405e-08 1 541 82.7087)" fill="url(#paint37_linear_499_249)"/>
<rect width="58.8793" height="6.70881" rx="3.3544" transform="matrix(0.890099 0.455767 -2.48405e-08 1 555.974 99.0017)" fill="#C4C4C4"/>
<rect width="110.399" height="6.70881" rx="3.3544" transform="matrix(0.890099 0.455767 -2.48405e-08 1 555.974 109.544)" fill="#1581FF"/>
<rect width="52.5708" height="6.70881" rx="3.3544" transform="matrix(0.890099 0.455767 -2.48405e-08 1 555.974 131.587)" fill="#036CB1"/>
<g style="mix-blend-mode:soft-light">
<rect width="87.2676" height="5.75041" rx="2.8752" transform="matrix(0.890099 0.455767 -2.48405e-08 1 555.974 121.045)" fill="#C4C4C4"/>
</g>
<rect width="44.1595" height="6.70881" rx="3.3544" transform="matrix(0.890099 0.455767 -2.48405e-08 1 615.869 173.757)" fill="#C4C4C4"/>
<g style="mix-blend-mode:overlay">
<rect width="54.6737" height="6.70881" rx="3.3544" transform="matrix(0.890099 0.455767 -2.48405e-08 1 605.574 158.902)" fill="#036CB1"/>
</g>
<rect width="68.3742" height="69.0929" rx="12" transform="matrix(0.916279 -0.40054 0.916279 0.40054 160.717 91.0137)" fill="url(#paint38_linear_499_249)"/>
<rect opacity="0.1" width="68.3742" height="69.8768" rx="12" transform="matrix(0.916279 -0.40054 0.916279 0.40054 160 129.724)" fill="url(#paint39_linear_499_249)"/>
<rect opacity="0.2" width="68.3742" height="68.3743" rx="12" transform="matrix(0.916279 -0.40054 0.916279 0.40054 161.377 121.842)" fill="url(#paint40_linear_499_249)"/>
<rect opacity="0.3" width="68.3742" height="68.3743" rx="12" transform="matrix(0.916279 -0.40054 0.916279 0.40054 161.377 114.207)" fill="url(#paint41_linear_499_249)"/>
<rect opacity="0.4" width="68.3742" height="68.3743" rx="12" transform="matrix(0.916279 -0.40054 0.916279 0.40054 161.377 106.572)" fill="url(#paint42_linear_499_249)"/>
<rect opacity="0.5" width="68.3742" height="68.3743" rx="12" transform="matrix(0.916279 -0.40054 0.916279 0.40054 161.377 99.7852)" fill="url(#paint43_linear_499_249)"/>
<rect width="42.1934" height="42.1934" transform="matrix(0.900152 -0.435576 0.900152 0.435576 186.075 44.6516)" fill="url(#paint44_linear_499_249)"/>
<rect width="42.1934" height="36.7569" transform="matrix(0.900152 -0.435576 2.62855e-08 1 224.23 63.0652)" fill="url(#paint45_linear_499_249)"/>
<rect width="42.1934" height="36.7569" transform="matrix(0.900152 0.435576 -2.62855e-08 1 186.075 44.687)" fill="url(#paint46_linear_499_249)"/>
<g style="mix-blend-mode:screen" opacity="0.2">
<rect width="42.1934" height="42.1934" transform="matrix(0.900152 -0.435576 0.900152 0.435576 186.602 55.2852)" fill="url(#paint47_linear_499_249)"/>
</g>
<g style="mix-blend-mode:screen" opacity="0.2">
<rect width="42.1934" height="42.1934" transform="matrix(0.900152 -0.435576 0.900152 0.435576 186.602 70.3491)" fill="url(#paint48_linear_499_249)"/>
</g>
<rect x="4.53958" width="55.7516" height="55.7516" transform="matrix(0.907916 -0.419151 0.907916 0.419151 169.119 39.4616)" stroke="url(#paint49_linear_499_249)" stroke-width="5" stroke-linejoin="round"/>
<rect x="2.26979" y="1.45212" width="55.8759" height="45.9283" transform="matrix(0.907916 -0.419151 2.75511e-08 1 224.209 64.0752)" stroke="url(#paint50_linear_499_249)" stroke-width="5" stroke-linejoin="round"/>
<rect x="2.26979" y="3.54788" width="55.7516" height="45.9283" transform="matrix(0.907916 0.419151 -2.75511e-08 1 168.91 36.656)" stroke="url(#paint51_linear_499_249)" stroke-width="5" stroke-linejoin="round"/>
<rect width="14.2444" height="14.2444" transform="matrix(0.938781 0.344514 -0.938781 0.344514 223.462 27.2852)" fill="#222222"/>
<rect width="15.6689" height="15.6689" transform="matrix(0.938781 0.344514 -0.938781 0.344514 223.412 0)" fill="#6FB047"/>
<rect width="10.4378" height="10.4378" transform="matrix(0.938781 0.344514 -0.938781 0.344514 223.442 28.5613)" fill="#484848"/>
<path d="M223.442 28.561L233.241 32.157L223.442 35.753L223.442 28.561Z" fill="#2F2F2F"/>
<rect width="14.2444" height="14.7222" transform="matrix(0.938781 0.344514 -3.46594e-08 1 210.092 32.1924)" fill="#242424"/>
<rect width="15.6689" height="14.7222" transform="matrix(0.938781 0.344514 -3.46594e-08 1 208.701 5.39819)" fill="#76BB4C"/>
<rect width="2.13667" height="10.2873" transform="matrix(0.938781 0.344514 -3.46594e-08 1 221.44 24.7334)" fill="#A38A4C"/>
<rect width="14.2444" height="14.7222" transform="matrix(0.938781 -0.344514 3.46594e-08 1 223.448 37.051)" fill="#484848"/>
<rect width="15.6689" height="14.7222" transform="matrix(0.938781 -0.344514 3.46594e-08 1 223.448 10.7959)" fill="#89DA57"/>
<path d="M223.448 25.5115L225.454 24.7754L225.454 35.0052L223.448 35.7413L223.448 25.5115Z" fill="#C1A55B"/>
<rect x="0.453719" y="0.710094" width="72.6326" height="60.879" transform="matrix(0.907437 0.420187 -2.74687e-08 1 282.15 80.8545)" fill="url(#paint52_linear_499_249)" stroke="url(#paint53_linear_499_249)"/>
<rect x="2.28679" y="3.51025" width="101.083" height="80.736" transform="matrix(0.914715 0.4041 -2.87913e-08 1 251.737 68.2038)" stroke="url(#paint54_linear_499_249)" stroke-width="5" stroke-linejoin="round"/>
<rect x="0.907437" width="72.6326" height="72.6326" transform="matrix(0.907437 -0.420187 0.907437 0.420187 282.192 81.3671)" fill="url(#paint55_linear_499_249)" stroke="url(#paint56_linear_499_249)"/>
<rect x="0.453718" y="0.289906" width="72.6326" height="60.879" transform="matrix(0.907437 -0.420188 2.74686e-08 1 345.042 115.13)" fill="url(#paint57_linear_499_249)" stroke="url(#paint58_linear_499_249)"/>
<g style="mix-blend-mode:screen" opacity="0.2">
<rect x="0.907437" width="72.6326" height="72.6326" transform="matrix(0.907437 -0.420187 0.907437 0.420187 283.119 99.2687)" fill="url(#paint59_linear_499_249)"/>
<rect x="0.907437" width="72.6326" height="72.6326" transform="matrix(0.907437 -0.420187 0.907437 0.420187 283.119 99.2687)" stroke="url(#paint60_linear_499_249)"/>
</g>
<g style="mix-blend-mode:screen" opacity="0.2">
<rect x="0.907437" width="72.6326" height="72.6326" transform="matrix(0.907437 -0.420187 0.907437 0.420187 282.964 120.753)" fill="url(#paint61_linear_499_249)"/>
<rect x="0.907437" width="72.6326" height="72.6326" transform="matrix(0.907437 -0.420187 0.907437 0.420187 282.964 120.753)" stroke="url(#paint62_linear_499_249)"/>
</g>
<rect x="4.57357" width="101.083" height="101.083" transform="matrix(0.914715 -0.4041 0.914715 0.4041 251.932 70.8946)" stroke="url(#paint63_linear_499_249)" stroke-width="5" stroke-linejoin="round"/>
<rect x="2.28679" y="1.48975" width="102.176" height="80.4955" transform="matrix(0.914715 -0.4041 2.87913e-08 1 348.195 113.234)" stroke="url(#paint64_linear_499_249)" stroke-width="5" stroke-linejoin="round"/>
<rect width="68.3742" height="69.0929" rx="12" transform="matrix(0.916279 -0.40054 0.916279 0.40054 402.717 196.919)" fill="url(#paint65_linear_499_249)"/>
<rect opacity="0.1" width="68.3742" height="69.8768" rx="12" transform="matrix(0.916279 -0.40054 0.916279 0.40054 402 235.629)" fill="url(#paint66_linear_499_249)"/>
<rect opacity="0.2" width="68.3742" height="68.3743" rx="12" transform="matrix(0.916279 -0.40054 0.916279 0.40054 403.377 227.747)" fill="url(#paint67_linear_499_249)"/>
<rect opacity="0.3" width="68.3742" height="68.3743" rx="12" transform="matrix(0.916279 -0.40054 0.916279 0.40054 403.377 220.112)" fill="url(#paint68_linear_499_249)"/>
<rect opacity="0.4" width="68.3742" height="68.3743" rx="12" transform="matrix(0.916279 -0.40054 0.916279 0.40054 403.377 212.477)" fill="url(#paint69_linear_499_249)"/>
<rect opacity="0.5" width="68.3742" height="68.3743" rx="12" transform="matrix(0.916279 -0.40054 0.916279 0.40054 403.377 205.69)" fill="url(#paint70_linear_499_249)"/>
<rect width="40.7054" height="40.7054" transform="matrix(0.90294 -0.429767 0.90294 0.429767 429.812 153.99)" fill="url(#paint71_linear_499_249)"/>
<rect width="40.7054" height="34.9876" transform="matrix(0.90294 -0.429767 2.67233e-08 1 466.735 171.517)" fill="url(#paint72_linear_499_249)"/>
<rect width="40.7054" height="34.9876" transform="matrix(0.90294 0.429767 -2.67233e-08 1 429.812 154.023)" fill="url(#paint73_linear_499_249)"/>
<g style="mix-blend-mode:screen" opacity="0.2">
<rect width="40.7054" height="40.7054" transform="matrix(0.90294 -0.429767 0.90294 0.429767 430.323 164.111)" fill="url(#paint74_linear_499_249)"/>
</g>
<g style="mix-blend-mode:screen" opacity="0.2">
<rect width="40.7054" height="40.7054" transform="matrix(0.90294 -0.429767 0.90294 0.429767 430.323 178.45)" fill="url(#paint75_linear_499_249)"/>
</g>
<rect x="4.5526" width="53.6226" height="53.6226" transform="matrix(0.91052 -0.413466 0.91052 0.413466 413.407 149.121)" stroke="url(#paint76_linear_499_249)" stroke-width="5" stroke-linejoin="round"/>
<rect x="2.2763" y="1.46634" width="53.6226" height="43.4769" transform="matrix(0.91052 -0.413466 2.801e-08 1 466.827 172.464)" stroke="url(#paint77_linear_499_249)" stroke-width="5" stroke-linejoin="round"/>
<rect x="2.2763" y="3.53366" width="53.6226" height="43.4769" transform="matrix(0.91052 0.413466 -2.801e-08 1 413.204 146.343)" stroke="url(#paint78_linear_499_249)" stroke-width="5" stroke-linejoin="round"/>
<rect width="14.2444" height="14.2444" transform="matrix(0.938781 0.344514 -0.938781 0.344514 459.761 136.285)" fill="#222222"/>
<rect width="15.6689" height="15.6689" transform="matrix(0.938781 0.344514 -0.938781 0.344514 459.71 109)" fill="#6FB047"/>
<rect width="10.4378" height="10.4378" transform="matrix(0.938781 0.344514 -0.938781 0.344514 459.741 137.561)" fill="#484848"/>
<path d="M459.741 137.561L469.54 141.157L459.741 144.753L459.741 137.561Z" fill="#2F2F2F"/>
<rect width="14.2444" height="14.7222" transform="matrix(0.938781 0.344514 -3.46594e-08 1 446.391 141.193)" fill="#242424"/>
<rect width="15.6689" height="14.7222" transform="matrix(0.938781 0.344514 -3.46594e-08 1 445 114.398)" fill="#76BB4C"/>
<rect width="2.13667" height="10.2873" transform="matrix(0.938781 0.344514 -3.46594e-08 1 457.739 133.733)" fill="#A38A4C"/>
<rect width="14.2444" height="14.7222" transform="matrix(0.938781 -0.344514 3.46594e-08 1 459.747 146.051)" fill="#484848"/>
<rect width="15.6689" height="14.7222" transform="matrix(0.938781 -0.344514 3.46594e-08 1 459.747 119.796)" fill="#89DA57"/>
<path d="M459.747 134.511L461.753 133.775L461.753 144.005L459.747 144.741L459.747 134.511Z" fill="#C1A55B"/>
<rect width="79.4589" height="48.8978" transform="matrix(0.920019 0.391874 -0.920019 0.391874 324.987 47.7034)" fill="#0D0D0D"/>
<rect width="27.8717" height="14.9138" rx="7.45692" transform="matrix(0.920019 0.391874 -0.920019 0.391874 319.701 70.1704)" fill="#242424"/>
<rect width="4.88978" height="3.66734" rx="1.83367" transform="matrix(0.920019 0.391874 -0.920019 0.391874 318.464 53.356)" fill="#242424"/>
<rect width="4.88978" height="3.66734" rx="1.83367" transform="matrix(0.920019 0.391874 -0.920019 0.391874 322.962 51.4402)" fill="#242424"/>
<rect width="4.88978" height="3.66734" rx="1.83367" transform="matrix(0.920019 0.391874 -0.920019 0.391874 340.958 62.9368)" fill="#242424"/>
<rect width="4.88978" height="3.66734" rx="1.83367" transform="matrix(0.920019 0.391874 -0.920019 0.391874 345.456 61.0208)" fill="#242424"/>
<rect width="4.88978" height="3.66734" rx="1.83367" transform="matrix(0.920019 0.391874 -0.920019 0.391874 363.451 72.5178)" fill="#242424"/>
<rect width="4.88978" height="3.66734" rx="1.83367" transform="matrix(0.920019 0.391874 -0.920019 0.391874 367.95 70.6018)" fill="#242424"/>
<rect width="4.88978" height="3.66734" rx="1.83367" transform="matrix(0.920019 0.391874 -0.920019 0.391874 309.467 57.1885)" fill="#242424"/>
<rect width="4.88978" height="3.66734" rx="1.83367" transform="matrix(0.920019 0.391874 -0.920019 0.391874 331.96 66.7693)" fill="#242424"/>
<rect width="4.88978" height="3.66734" rx="1.83367" transform="matrix(0.920019 0.391874 -0.920019 0.391874 354.454 76.3503)" fill="#242424"/>
<rect width="11.002" height="3.66734" rx="1.83367" transform="matrix(0.920019 0.391874 -0.920019 0.391874 313.965 55.272)" fill="#242424"/>
<rect width="4.88978" height="3.66734" rx="1.83367" transform="matrix(0.920019 0.391874 -0.920019 0.391874 336.459 64.853)" fill="#242424"/>
<rect width="4.88978" height="3.66734" rx="1.83367" transform="matrix(0.920019 0.391874 -0.920019 0.391874 358.952 74.4338)" fill="#242424"/>
<rect width="4.88978" height="3.66734" rx="1.83367" transform="matrix(0.920019 0.391874 -0.920019 0.391874 304.968 59.1045)" fill="#242424"/>
<rect width="23.2265" height="3.66734" rx="1.83367" transform="matrix(0.920019 0.391874 -0.920019 0.391874 327.462 68.6855)" fill="#242424"/>
<rect width="4.88978" height="3.66734" rx="1.83367" transform="matrix(0.920019 0.391874 -0.920019 0.391874 349.955 78.2664)" fill="#242424"/>
<rect width="4.88978" height="3.66734" rx="1.83367" transform="matrix(0.920019 0.391874 -0.920019 0.391874 329.711 58.1465)" fill="#242424"/>
<rect width="4.88978" height="3.66734" rx="1.83367" transform="matrix(0.920019 0.391874 -0.920019 0.391874 334.209 56.2305)" fill="#242424"/>
<rect width="4.88978" height="3.66734" rx="1.83367" transform="matrix(0.920019 0.391874 -0.920019 0.391874 352.205 67.7275)" fill="#242424"/>
<rect width="4.88978" height="3.66734" rx="1.83367" transform="matrix(0.920019 0.391874 -0.920019 0.391874 356.703 65.811)" fill="#242424"/>
<rect width="4.88978" height="3.66734" rx="1.83367" transform="matrix(0.920019 0.391874 -0.920019 0.391874 374.698 77.3083)" fill="#242424"/>
<rect width="4.88978" height="3.66734" rx="1.83367" transform="matrix(0.920019 0.391874 -0.920019 0.391874 379.196 75.3918)" fill="#242424"/>
<rect width="4.88978" height="3.66734" rx="1.83367" transform="matrix(0.920019 0.391874 -0.920019 0.391874 320.713 61.9788)" fill="#242424"/>
<rect width="4.88978" height="3.66734" rx="1.83367" transform="matrix(0.920019 0.391874 -0.920019 0.391874 343.207 71.5596)" fill="#242424"/>
<rect width="4.88978" height="3.66734" rx="1.83367" transform="matrix(0.920019 0.391874 -0.920019 0.391874 365.7 81.1406)" fill="#242424"/>
<rect width="4.88978" height="3.66734" rx="1.83367" transform="matrix(0.920019 0.391874 -0.920019 0.391874 325.212 60.0627)" fill="#242424"/>
<rect width="4.88978" height="3.66734" rx="1.83367" transform="matrix(0.920019 0.391874 -0.920019 0.391874 347.706 69.6436)" fill="#242424"/>
<rect width="4.88978" height="3.66734" rx="1.83367" transform="matrix(0.920019 0.391874 -0.920019 0.391874 316.215 63.895)" fill="#242424"/>
<rect width="4.88978" height="3.66734" rx="1.83367" transform="matrix(0.920019 0.391874 -0.920019 0.391874 361.202 83.0569)" fill="#242424"/>
<rect width="4.88978" height="3.66734" rx="1.83367" transform="matrix(0.920019 0.391874 -0.920019 0.391874 324.088 55.7512)" fill="#242424"/>
<rect width="4.88978" height="3.66734" rx="1.83367" transform="matrix(0.920019 0.391874 -0.920019 0.391874 328.586 53.8352)" fill="#242424"/>
<rect width="4.88978" height="3.66734" rx="1.83367" transform="matrix(0.920019 0.391874 -0.920019 0.391874 346.581 65.3323)" fill="#242424"/>
<rect width="4.88978" height="3.66734" rx="1.83367" transform="matrix(0.920019 0.391874 -0.920019 0.391874 351.08 63.416)" fill="#242424"/>
<rect width="4.88978" height="3.66734" rx="1.83367" transform="matrix(0.920019 0.391874 -0.920019 0.391874 369.074 74.9131)" fill="#242424"/>
<rect width="4.88978" height="3.66734" rx="1.83367" transform="matrix(0.920019 0.391874 -0.920019 0.391874 373.573 72.9968)" fill="#242424"/>
<rect width="4.88978" height="3.66734" rx="1.83367" transform="matrix(0.920019 0.391874 -0.920019 0.391874 315.09 59.5835)" fill="#242424"/>
<rect width="4.88978" height="3.66734" rx="1.83367" transform="matrix(0.920019 0.391874 -0.920019 0.391874 337.583 69.1643)" fill="#242424"/>
<rect width="4.88978" height="3.66734" rx="1.83367" transform="matrix(0.920019 0.391874 -0.920019 0.391874 360.077 78.7454)" fill="#242424"/>
<rect width="4.88978" height="3.66734" rx="1.83367" transform="matrix(0.920019 0.391874 -0.920019 0.391874 342.082 67.2483)" fill="#242424"/>
<rect width="4.88978" height="3.66734" rx="1.83367" transform="matrix(0.920019 0.391874 -0.920019 0.391874 364.576 76.8291)" fill="#242424"/>
<rect width="4.88978" height="3.66734" rx="1.83367" transform="matrix(0.920019 0.391874 -0.920019 0.391874 310.592 61.5)" fill="#242424"/>
<rect width="4.88978" height="3.66734" rx="1.83367" transform="matrix(0.920019 0.391874 -0.920019 0.391874 355.579 80.6614)" fill="#242424"/>
<rect width="4.88978" height="3.66734" rx="1.83367" transform="matrix(0.920019 0.391874 -0.920019 0.391874 335.334 60.5415)" fill="#242424"/>
<rect width="4.88978" height="3.66734" rx="1.83367" transform="matrix(0.920019 0.391874 -0.920019 0.391874 339.833 58.6255)" fill="#242424"/>
<rect width="4.88978" height="3.66734" rx="1.83367" transform="matrix(0.920019 0.391874 -0.920019 0.391874 357.828 70.1226)" fill="#242424"/>
<rect width="4.88978" height="3.66734" rx="1.83367" transform="matrix(0.920019 0.391874 -0.920019 0.391874 362.326 68.2063)" fill="#242424"/>
<rect width="4.88978" height="3.66734" rx="1.83367" transform="matrix(0.920019 0.391874 -0.920019 0.391874 380.321 79.7034)" fill="#242424"/>
<rect width="4.88978" height="3.66734" rx="1.83367" transform="matrix(0.920019 0.391874 -0.920019 0.391874 384.82 77.7874)" fill="#242424"/>
<rect width="4.88978" height="3.66734" rx="1.83367" transform="matrix(0.920019 0.391874 -0.920019 0.391874 326.337 64.374)" fill="#242424"/>
<rect width="4.88978" height="3.66734" rx="1.83367" transform="matrix(0.920019 0.391874 -0.920019 0.391874 348.831 73.9551)" fill="#242424"/>
<rect width="4.88978" height="3.66734" rx="1.83367" transform="matrix(0.920019 0.391874 -0.920019 0.391874 371.324 83.5359)" fill="#242424"/>
<rect width="4.88978" height="3.66734" rx="1.83367" transform="matrix(0.920019 0.391874 -0.920019 0.391874 330.836 62.458)" fill="#242424"/>
<rect width="4.88978" height="3.66734" rx="1.83367" transform="matrix(0.920019 0.391874 -0.920019 0.391874 353.329 72.0388)" fill="#242424"/>
<rect width="11.002" height="3.66734" rx="1.83367" transform="matrix(0.920019 0.391874 -0.920019 0.391874 370.199 79.2244)" fill="#242424"/>
<rect width="4.88978" height="3.66734" rx="1.83367" transform="matrix(0.920019 0.391874 -0.920019 0.391874 321.838 66.2903)" fill="#242424"/>
<rect width="4.88978" height="3.66734" rx="1.83367" transform="matrix(0.920019 0.391874 -0.920019 0.391874 366.825 85.4521)" fill="#242424"/>
<rect width="79.4589" height="40.0481" transform="matrix(0.920019 0.391874 -2.98617e-08 1 325.193 7.75098)" fill="#0A0A0A"/>
<rect width="75.7916" height="35.8326" rx="7.69264" transform="matrix(0.920019 0.391874 -2.98617e-08 1 326.881 9.90674)" fill="black"/>
<rect width="15.2806" height="0.670663" rx="0.335331" transform="matrix(0.920019 0.391874 -2.98617e-08 1 330.255 16.8049)" fill="#05DCA8"/>
<rect width="15.2806" height="0.670663" rx="0.335331" transform="matrix(0.920019 0.391874 -2.98617e-08 1 330.255 31.1765)" fill="#7005DC"/>
<rect width="15.2806" height="0.670663" rx="0.335331" transform="matrix(0.920019 0.391874 -2.98617e-08 1 346.562 38.1226)" fill="#05DCA8"/>
<rect width="7.21243" height="0.670663" rx="0.335331" transform="matrix(0.920019 0.391874 -2.98617e-08 1 330.255 21.5955)" fill="#DCC605"/>
<rect width="7.21243" height="0.670663" rx="0.335331" transform="matrix(0.920019 0.391874 -2.98617e-08 1 348.024 29.1646)" fill="#7005DC"/>
<rect width="7.21243" height="0.670663" rx="0.335331" transform="matrix(0.920019 0.391874 -2.98617e-08 1 339.139 25.3801)" fill="#06CAF5"/>
<rect width="7.21243" height="0.670663" rx="0.335331" transform="matrix(0.920019 0.391874 -2.98617e-08 1 346.562 23.7512)" fill="#DCC605"/>
<rect width="7.21243" height="0.670663" rx="0.335331" transform="matrix(0.920019 0.391874 -2.98617e-08 1 330.255 35.9668)" fill="#05DCA8"/>
<rect width="20.2926" height="0.670663" rx="0.335331" transform="matrix(0.920019 0.391874 -2.98617e-08 1 330.255 26.3857)" fill="#06CAF5"/>
<rect width="20.2926" height="0.670663" rx="0.335331" transform="matrix(0.920019 0.391874 -2.98617e-08 1 330.255 40.7573)" fill="#7005DC"/>
<rect width="20.2926" height="0.670663" rx="0.335331" transform="matrix(0.920019 0.391874 -2.98617e-08 1 339.139 39.7512)" fill="#06CAF5"/>
<rect width="50.9572" height="1.53294" transform="matrix(0.920019 -0.391874 2.98617e-08 1 353.114 97.8848)" fill="#090909"/>
<rect width="79.4707" height="1.53294" transform="matrix(0.920019 0.391874 -2.98617e-08 1 280 66.7422)" fill="#161616"/>
<rect width="79.4017" height="1.91245" transform="matrix(0.920019 0.391874 -0.920019 0.391874 326.949 7)" fill="#232323"/>
<path d="M398.178 38.8892L399.996 38.1147L399.996 77.9238L398.178 78.6982L398.178 38.8892Z" fill="#080808"/>
<defs>
<linearGradient id="paint0_linear_499_249" x1="92.0513" y1="31.9417" x2="27.05" y2="-59.3467" gradientUnits="userSpaceOnUse">
<stop stop-color="#398BEB"/>
<stop offset="1" stop-color="#1826A8"/>
</linearGradient>
<linearGradient id="paint1_linear_499_249" x1="92.0513" y1="31.9417" x2="27.05" y2="-59.3467" gradientUnits="userSpaceOnUse">
<stop stop-color="#398BEB"/>
<stop offset="1" stop-color="#1826A8"/>
</linearGradient>
<linearGradient id="paint2_linear_499_249" x1="92.0513" y1="31.9417" x2="27.05" y2="-59.3467" gradientUnits="userSpaceOnUse">
<stop stop-color="#398BEB"/>
<stop offset="1" stop-color="#1826A8"/>
</linearGradient>
<linearGradient id="paint3_linear_499_249" x1="92.0513" y1="31.9417" x2="27.05" y2="-59.3467" gradientUnits="userSpaceOnUse">
<stop stop-color="#398BEB"/>
<stop offset="1" stop-color="#1826A8"/>
</linearGradient>
<linearGradient id="paint4_linear_499_249" x1="92.0513" y1="31.9417" x2="27.05" y2="-59.3467" gradientUnits="userSpaceOnUse">
<stop stop-color="#398BEB"/>
<stop offset="1" stop-color="#1826A8"/>
</linearGradient>
<linearGradient id="paint5_linear_499_249" x1="92.0513" y1="31.9417" x2="27.05" y2="-59.3467" gradientUnits="userSpaceOnUse">
<stop stop-color="#398BEB"/>
<stop offset="1" stop-color="#1826A8"/>
</linearGradient>
<linearGradient id="paint6_linear_499_249" x1="60.6487" y1="21.5379" x2="16.4967" y2="-39.0509" gradientUnits="userSpaceOnUse">
<stop stop-color="#398BEB"/>
<stop offset="1" stop-color="#1826A8"/>
</linearGradient>
<linearGradient id="paint7_linear_499_249" x1="62.2881" y1="21.5379" x2="18.5094" y2="-40.1626" gradientUnits="userSpaceOnUse">
<stop stop-color="#398BEB"/>
<stop offset="1" stop-color="#1826A8"/>
</linearGradient>
<linearGradient id="paint8_linear_499_249" x1="62.069" y1="21.5379" x2="18.2395" y2="-40.0168" gradientUnits="userSpaceOnUse">
<stop stop-color="#398BEB"/>
<stop offset="1" stop-color="#1826A8"/>
</linearGradient>
<linearGradient id="paint9_linear_499_249" x1="62.069" y1="21.5379" x2="18.2395" y2="-40.0168" gradientUnits="userSpaceOnUse">
<stop stop-color="#398BEB"/>
<stop offset="1" stop-color="#1826A8"/>
</linearGradient>
<linearGradient id="paint10_linear_499_249" x1="62.069" y1="21.5379" x2="18.2395" y2="-40.0168" gradientUnits="userSpaceOnUse">
<stop stop-color="#398BEB"/>
<stop offset="1" stop-color="#1826A8"/>
</linearGradient>
<linearGradient id="paint11_linear_499_249" x1="62.069" y1="21.5379" x2="18.2395" y2="-40.0168" gradientUnits="userSpaceOnUse">
<stop stop-color="#398BEB"/>
<stop offset="1" stop-color="#1826A8"/>
</linearGradient>
<linearGradient id="paint12_linear_499_249" x1="37.6198" y1="13.054" x2="11.0549" y2="-24.254" gradientUnits="userSpaceOnUse">
<stop stop-color="#398BEB"/>
<stop offset="1" stop-color="#1826A8"/>
</linearGradient>
<linearGradient id="paint13_linear_499_249" x1="32.603" y1="0.0648263" x2="19.5058" y2="37.7696" gradientUnits="userSpaceOnUse">
<stop stop-color="#398BEB"/>
<stop offset="1" stop-color="#1826A8"/>
</linearGradient>
<linearGradient id="paint14_linear_499_249" x1="37.0028" y1="-4.4224" x2="-4.32128" y2="-5.0793" gradientUnits="userSpaceOnUse">
<stop offset="0.00692422" stop-color="#398BEB"/>
<stop offset="1" stop-color="#1826A8"/>
</linearGradient>
<linearGradient id="paint15_linear_499_249" x1="37.6198" y1="13.054" x2="11.0549" y2="-24.254" gradientUnits="userSpaceOnUse">
<stop stop-color="#398BEB"/>
<stop offset="1" stop-color="#1826A8"/>
</linearGradient>
<linearGradient id="paint16_linear_499_249" x1="37.6198" y1="13.054" x2="11.0549" y2="-24.254" gradientUnits="userSpaceOnUse">
<stop stop-color="#398BEB"/>
<stop offset="1" stop-color="#1826A8"/>
</linearGradient>
<linearGradient id="paint17_linear_499_249" x1="22.7169" y1="0" x2="22.7169" y2="45.4337" gradientUnits="userSpaceOnUse">
<stop stop-color="#0071B0"/>
<stop offset="0.9999" stop-color="#2519B3"/>
<stop offset="1" stop-opacity="0"/>
</linearGradient>
<linearGradient id="paint18_linear_499_249" x1="22.7332" y1="0" x2="22.7332" y2="38.5687" gradientUnits="userSpaceOnUse">
<stop stop-color="#0071B0"/>
<stop offset="0.9999" stop-color="#2519B3"/>
<stop offset="1" stop-opacity="0"/>
</linearGradient>
<linearGradient id="paint19_linear_499_249" x1="22.7169" y1="0" x2="22.7169" y2="38.428" gradientUnits="userSpaceOnUse">
<stop stop-color="#0071B0"/>
<stop offset="0.9999" stop-color="#2519B3"/>
<stop offset="1" stop-opacity="0"/>
</linearGradient>
<linearGradient id="paint20_linear_499_249" x1="60.6487" y1="21.5379" x2="16.4967" y2="-39.0509" gradientUnits="userSpaceOnUse">
<stop stop-color="#398BEB"/>
<stop offset="1" stop-color="#1826A8"/>
</linearGradient>
<linearGradient id="paint21_linear_499_249" x1="62.2881" y1="21.5379" x2="18.5094" y2="-40.1626" gradientUnits="userSpaceOnUse">
<stop stop-color="#398BEB"/>
<stop offset="1" stop-color="#1826A8"/>
</linearGradient>
<linearGradient id="paint22_linear_499_249" x1="62.069" y1="21.5379" x2="18.2395" y2="-40.0168" gradientUnits="userSpaceOnUse">
<stop stop-color="#398BEB"/>
<stop offset="1" stop-color="#1826A8"/>
</linearGradient>
<linearGradient id="paint23_linear_499_249" x1="62.069" y1="21.5379" x2="18.2395" y2="-40.0168" gradientUnits="userSpaceOnUse">
<stop stop-color="#398BEB"/>
<stop offset="1" stop-color="#1826A8"/>
</linearGradient>
<linearGradient id="paint24_linear_499_249" x1="62.069" y1="21.5379" x2="18.2395" y2="-40.0168" gradientUnits="userSpaceOnUse">
<stop stop-color="#398BEB"/>
<stop offset="1" stop-color="#1826A8"/>
</linearGradient>
<linearGradient id="paint25_linear_499_249" x1="62.069" y1="21.5379" x2="18.2395" y2="-40.0168" gradientUnits="userSpaceOnUse">
<stop stop-color="#398BEB"/>
<stop offset="1" stop-color="#1826A8"/>
</linearGradient>
<linearGradient id="paint26_linear_499_249" x1="37.6198" y1="13.054" x2="11.0549" y2="-24.254" gradientUnits="userSpaceOnUse">
<stop stop-color="#398BEB"/>
<stop offset="1" stop-color="#1826A8"/>
</linearGradient>
<linearGradient id="paint27_linear_499_249" x1="32.603" y1="0.0648263" x2="19.5058" y2="37.7696" gradientUnits="userSpaceOnUse">
<stop stop-color="#398BEB"/>
<stop offset="1" stop-color="#1826A8"/>
</linearGradient>
<linearGradient id="paint28_linear_499_249" x1="37.0028" y1="-4.4224" x2="-4.32128" y2="-5.0793" gradientUnits="userSpaceOnUse">
<stop offset="0.00692422" stop-color="#398BEB"/>
<stop offset="1" stop-color="#1826A8"/>
</linearGradient>
<linearGradient id="paint29_linear_499_249" x1="37.6198" y1="13.054" x2="11.0549" y2="-24.254" gradientUnits="userSpaceOnUse">
<stop stop-color="#398BEB"/>
<stop offset="1" stop-color="#1826A8"/>
</linearGradient>
<linearGradient id="paint30_linear_499_249" x1="37.6198" y1="13.054" x2="11.0549" y2="-24.254" gradientUnits="userSpaceOnUse">
<stop stop-color="#398BEB"/>
<stop offset="1" stop-color="#1826A8"/>
</linearGradient>
<linearGradient id="paint31_linear_499_249" x1="22.7169" y1="0" x2="22.7169" y2="45.4337" gradientUnits="userSpaceOnUse">
<stop stop-color="#0071B0"/>
<stop offset="0.9999" stop-color="#2519B3"/>
<stop offset="1" stop-opacity="0"/>
</linearGradient>
<linearGradient id="paint32_linear_499_249" x1="22.7332" y1="0" x2="22.7332" y2="38.5687" gradientUnits="userSpaceOnUse">
<stop stop-color="#0071B0"/>
<stop offset="0.9999" stop-color="#2519B3"/>
<stop offset="1" stop-opacity="0"/>
</linearGradient>
<linearGradient id="paint33_linear_499_249" x1="22.7169" y1="0" x2="22.7169" y2="38.428" gradientUnits="userSpaceOnUse">
<stop stop-color="#0071B0"/>
<stop offset="0.9999" stop-color="#2519B3"/>
<stop offset="1" stop-opacity="0"/>
</linearGradient>
<linearGradient id="paint34_linear_499_249" x1="72.5478" y1="0" x2="72.5478" y2="67.0881" gradientUnits="userSpaceOnUse">
<stop stop-color="#0071B0"/>
<stop offset="0.9999" stop-color="#2519B3"/>
<stop offset="1" stop-opacity="0"/>
</linearGradient>
<linearGradient id="paint35_linear_499_249" x1="72.5478" y1="0" x2="72.5478" y2="67.0881" gradientUnits="userSpaceOnUse">
<stop stop-color="#0071B0"/>
<stop offset="0.9999" stop-color="#2519B3"/>
<stop offset="1" stop-opacity="0"/>
</linearGradient>
<linearGradient id="paint36_linear_499_249" x1="72.5478" y1="0" x2="72.5478" y2="67.0881" gradientUnits="userSpaceOnUse">
<stop stop-color="#0071B0"/>
<stop offset="0.9999" stop-color="#2519B3"/>
<stop offset="1" stop-opacity="0"/>
</linearGradient>
<linearGradient id="paint37_linear_499_249" x1="72.5478" y1="0" x2="72.5478" y2="67.0881" gradientUnits="userSpaceOnUse">
<stop stop-color="#0071B0"/>
<stop offset="0.9999" stop-color="#2519B3"/>
<stop offset="1" stop-opacity="0"/>
</linearGradient>
<linearGradient id="paint38_linear_499_249" x1="81.4722" y1="28.568" x2="23.1402" y2="-52.502" gradientUnits="userSpaceOnUse">
<stop stop-color="#398BEB"/>
<stop offset="1" stop-color="#1826A8"/>
</linearGradient>
<linearGradient id="paint39_linear_499_249" x1="81.4722" y1="28.8921" x2="22.2699" y2="-52.4643" gradientUnits="userSpaceOnUse">
<stop stop-color="#398BEB"/>
<stop offset="1" stop-color="#1826A8"/>
</linearGradient>
<linearGradient id="paint40_linear_499_249" x1="81.4722" y1="28.2708" x2="23.9412" y2="-52.5263" gradientUnits="userSpaceOnUse">
<stop stop-color="#398BEB"/>
<stop offset="1" stop-color="#1826A8"/>
</linearGradient>
<linearGradient id="paint41_linear_499_249" x1="81.4722" y1="28.2708" x2="23.9412" y2="-52.5263" gradientUnits="userSpaceOnUse">
<stop stop-color="#398BEB"/>
<stop offset="1" stop-color="#1826A8"/>
</linearGradient>
<linearGradient id="paint42_linear_499_249" x1="81.4722" y1="28.2708" x2="23.9412" y2="-52.5263" gradientUnits="userSpaceOnUse">
<stop stop-color="#398BEB"/>
<stop offset="1" stop-color="#1826A8"/>
</linearGradient>
<linearGradient id="paint43_linear_499_249" x1="81.4722" y1="28.2708" x2="23.9412" y2="-52.5263" gradientUnits="userSpaceOnUse">
<stop stop-color="#398BEB"/>
<stop offset="1" stop-color="#1826A8"/>
</linearGradient>
<linearGradient id="paint44_linear_499_249" x1="50.2761" y1="17.4458" x2="14.774" y2="-32.4137" gradientUnits="userSpaceOnUse">
<stop stop-color="#398BEB"/>
<stop offset="1" stop-color="#1826A8"/>
</linearGradient>
<linearGradient id="paint45_linear_499_249" x1="42.3871" y1="0.0843484" x2="25.3348" y2="49.1352" gradientUnits="userSpaceOnUse">
<stop stop-color="#398BEB"/>
<stop offset="1" stop-color="#1826A8"/>
</linearGradient>
<linearGradient id="paint46_linear_499_249" x1="49.4516" y1="-5.73446" x2="-5.77421" y2="-6.63926" gradientUnits="userSpaceOnUse">
<stop offset="0.00692422" stop-color="#398BEB"/>
<stop offset="1" stop-color="#1826A8"/>
</linearGradient>
<linearGradient id="paint47_linear_499_249" x1="50.2761" y1="17.4458" x2="14.774" y2="-32.4137" gradientUnits="userSpaceOnUse">
<stop stop-color="#398BEB"/>
<stop offset="1" stop-color="#1826A8"/>
</linearGradient>
<linearGradient id="paint48_linear_499_249" x1="50.2761" y1="17.4458" x2="14.774" y2="-32.4137" gradientUnits="userSpaceOnUse">
<stop stop-color="#398BEB"/>
<stop offset="1" stop-color="#1826A8"/>
</linearGradient>
<linearGradient id="paint49_linear_499_249" x1="30.3758" y1="0" x2="30.3758" y2="60.7516" gradientUnits="userSpaceOnUse">
<stop stop-color="#0071B0"/>
<stop offset="0.9999" stop-color="#2519B3"/>
<stop offset="1" stop-opacity="0"/>
</linearGradient>
<linearGradient id="paint50_linear_499_249" x1="30.4379" y1="0" x2="30.4379" y2="50.9283" gradientUnits="userSpaceOnUse">
<stop stop-color="#0071B0"/>
<stop offset="0.9999" stop-color="#2519B3"/>
<stop offset="1" stop-opacity="0"/>
</linearGradient>
<linearGradient id="paint51_linear_499_249" x1="30.3758" y1="0" x2="30.3758" y2="50.9283" gradientUnits="userSpaceOnUse">
<stop stop-color="#0071B0"/>
<stop offset="0.9999" stop-color="#2519B3"/>
<stop offset="1" stop-opacity="0"/>
</linearGradient>
<linearGradient id="paint52_linear_499_249" x1="86.299" y1="-9.65377" x2="-10.0748" y2="-11.2906" gradientUnits="userSpaceOnUse">
<stop offset="0.00692422" stop-color="#398BEB"/>
<stop offset="1" stop-color="#1826A8"/>
</linearGradient>
<linearGradient id="paint53_linear_499_249" x1="36.8163" y1="0" x2="36.8163" y2="61.879" gradientUnits="userSpaceOnUse">
<stop stop-color="#0071B0"/>
<stop offset="0.9999" stop-color="#2519B3"/>
<stop offset="1" stop-opacity="0"/>
</linearGradient>
<linearGradient id="paint54_linear_499_249" x1="53.0413" y1="0" x2="53.0413" y2="85.736" gradientUnits="userSpaceOnUse">
<stop stop-color="#0071B0"/>
<stop offset="0.9999" stop-color="#2519B3"/>
<stop offset="1" stop-opacity="0"/>
</linearGradient>
<linearGradient id="paint55_linear_499_249" x1="87.7378" y1="30.445" x2="25.7825" y2="-56.5658" gradientUnits="userSpaceOnUse">
<stop stop-color="#398BEB"/>
<stop offset="1" stop-color="#1826A8"/>
</linearGradient>
<linearGradient id="paint56_linear_499_249" x1="36.8163" y1="0" x2="36.8163" y2="73.6326" gradientUnits="userSpaceOnUse">
<stop stop-color="#0071B0"/>
<stop offset="0.9999" stop-color="#2519B3"/>
<stop offset="1" stop-opacity="0"/>
</linearGradient>
<linearGradient id="paint57_linear_499_249" x1="73.9705" y1="0.141998" x2="46.069" y2="83.34" gradientUnits="userSpaceOnUse">
<stop stop-color="#398BEB"/>
<stop offset="1" stop-color="#1826A8"/>
</linearGradient>
<linearGradient id="paint58_linear_499_249" x1="36.8163" y1="0" x2="36.8163" y2="61.879" gradientUnits="userSpaceOnUse">
<stop stop-color="#0071B0"/>
<stop offset="0.9999" stop-color="#2519B3"/>
<stop offset="1" stop-opacity="0"/>
</linearGradient>
<linearGradient id="paint59_linear_499_249" x1="87.7378" y1="30.445" x2="25.7825" y2="-56.5658" gradientUnits="userSpaceOnUse">
<stop stop-color="#398BEB"/>
<stop offset="1" stop-color="#1826A8"/>
</linearGradient>
<linearGradient id="paint60_linear_499_249" x1="36.8163" y1="0" x2="36.8163" y2="73.6326" gradientUnits="userSpaceOnUse">
<stop stop-color="#0071B0"/>
<stop offset="0.9999" stop-color="#2519B3"/>
<stop offset="1" stop-opacity="0"/>
</linearGradient>
<linearGradient id="paint61_linear_499_249" x1="87.7378" y1="30.445" x2="25.7825" y2="-56.5658" gradientUnits="userSpaceOnUse">
<stop stop-color="#398BEB"/>
<stop offset="1" stop-color="#1826A8"/>
</linearGradient>
<linearGradient id="paint62_linear_499_249" x1="36.8163" y1="0" x2="36.8163" y2="73.6326" gradientUnits="userSpaceOnUse">
<stop stop-color="#0071B0"/>
<stop offset="0.9999" stop-color="#2519B3"/>
<stop offset="1" stop-opacity="0"/>
</linearGradient>
<linearGradient id="paint63_linear_499_249" x1="53.0413" y1="0" x2="53.0413" y2="106.083" gradientUnits="userSpaceOnUse">
<stop stop-color="#0071B0"/>
<stop offset="0.9999" stop-color="#2519B3"/>
<stop offset="1" stop-opacity="0"/>
</linearGradient>
<linearGradient id="paint64_linear_499_249" x1="53.5879" y1="0" x2="53.5879" y2="85.4955" gradientUnits="userSpaceOnUse">
<stop stop-color="#0071B0"/>
<stop offset="0.9999" stop-color="#2519B3"/>
<stop offset="1" stop-opacity="0"/>
</linearGradient>
<linearGradient id="paint65_linear_499_249" x1="81.4722" y1="28.568" x2="23.1402" y2="-52.502" gradientUnits="userSpaceOnUse">
<stop stop-color="#398BEB"/>
<stop offset="1" stop-color="#1826A8"/>
</linearGradient>
<linearGradient id="paint66_linear_499_249" x1="81.4722" y1="28.8921" x2="22.2699" y2="-52.4643" gradientUnits="userSpaceOnUse">
<stop stop-color="#398BEB"/>
<stop offset="1" stop-color="#1826A8"/>
</linearGradient>
<linearGradient id="paint67_linear_499_249" x1="81.4722" y1="28.2708" x2="23.9412" y2="-52.5263" gradientUnits="userSpaceOnUse">
<stop stop-color="#398BEB"/>
<stop offset="1" stop-color="#1826A8"/>
</linearGradient>
<linearGradient id="paint68_linear_499_249" x1="81.4722" y1="28.2708" x2="23.9412" y2="-52.5263" gradientUnits="userSpaceOnUse">
<stop stop-color="#398BEB"/>
<stop offset="1" stop-color="#1826A8"/>
</linearGradient>
<linearGradient id="paint69_linear_499_249" x1="81.4722" y1="28.2708" x2="23.9412" y2="-52.5263" gradientUnits="userSpaceOnUse">
<stop stop-color="#398BEB"/>
<stop offset="1" stop-color="#1826A8"/>
</linearGradient>
<linearGradient id="paint70_linear_499_249" x1="81.4722" y1="28.2708" x2="23.9412" y2="-52.5263" gradientUnits="userSpaceOnUse">
<stop stop-color="#398BEB"/>
<stop offset="1" stop-color="#1826A8"/>
</linearGradient>
<linearGradient id="paint71_linear_499_249" x1="48.503" y1="16.8305" x2="14.253" y2="-31.2706" gradientUnits="userSpaceOnUse">
<stop stop-color="#398BEB"/>
<stop offset="1" stop-color="#1826A8"/>
</linearGradient>
<linearGradient id="paint72_linear_499_249" x1="40.8922" y1="0.0802883" x2="24.8313" y2="46.9039" gradientUnits="userSpaceOnUse">
<stop stop-color="#398BEB"/>
<stop offset="1" stop-color="#1826A8"/>
</linearGradient>
<linearGradient id="paint73_linear_499_249" x1="47.7076" y1="-5.45844" x2="-5.57018" y2="-6.34312" gradientUnits="userSpaceOnUse">
<stop offset="0.00692422" stop-color="#398BEB"/>
<stop offset="1" stop-color="#1826A8"/>
</linearGradient>
<linearGradient id="paint74_linear_499_249" x1="48.503" y1="16.8305" x2="14.253" y2="-31.2706" gradientUnits="userSpaceOnUse">
<stop stop-color="#398BEB"/>
<stop offset="1" stop-color="#1826A8"/>
</linearGradient>
<linearGradient id="paint75_linear_499_249" x1="48.503" y1="16.8305" x2="14.253" y2="-31.2706" gradientUnits="userSpaceOnUse">
<stop stop-color="#398BEB"/>
<stop offset="1" stop-color="#1826A8"/>
</linearGradient>
<linearGradient id="paint76_linear_499_249" x1="29.3113" y1="0" x2="29.3113" y2="58.6226" gradientUnits="userSpaceOnUse">
<stop stop-color="#0071B0"/>
<stop offset="0.9999" stop-color="#2519B3"/>
<stop offset="1" stop-opacity="0"/>
</linearGradient>
<linearGradient id="paint77_linear_499_249" x1="29.3113" y1="0" x2="29.3113" y2="48.4769" gradientUnits="userSpaceOnUse">
<stop stop-color="#0071B0"/>
<stop offset="0.9999" stop-color="#2519B3"/>
<stop offset="1" stop-opacity="0"/>
</linearGradient>
<linearGradient id="paint78_linear_499_249" x1="29.3113" y1="0" x2="29.3113" y2="48.4769" gradientUnits="userSpaceOnUse">
<stop stop-color="#0071B0"/>
<stop offset="0.9999" stop-color="#2519B3"/>
<stop offset="1" stop-opacity="0"/>
</linearGradient>
</defs>
</svg>
